<svg version="1" xmlns="http://www.w3.org/2000/svg" width="346.667" height="346.667"
     viewBox="0 0 260.000000 260.000000">
    <path d="M105 9.6c-14.6 2.2-21.2 4.3-32.2 10.1-18.7 9.8-33.9 29.2-40 50.9-2.2 7.8-2.2 8.6-2.6 94.1l-.3 86.1H73l.2-32.6c.3-30.6.4-32.5 1.9-29.7.9 1.6 2.8 5.2 4.4 8 1.5 2.7 4.4 7.9 6.4 11.5 2 3.6 4.1 7.3 4.6 8.2.6.9 2.3 4.1 3.9 7 6.9 12.9 9.8 16.9 15.3 20.8 3.1 2.2 7.1 4.2 8.9 4.6 1.9.3 3.2 1 2.9 1.4-.3.5 14.6.8 33.1.8h33.5l7.2-3.6c12.8-6.4 24.4-20.3 29.7-35.6 2.2-6.6 3.7-14.3 4.6-23.8.6-6.6.6-6.8-1.7-6.9-1.3 0-14.3-.1-28.9-.2l-26.5-.2-.1 12.5c0 10.8-.4 13.5-2.6 19.7-2.9 8.2-7.5 16.6-8.8 16.1-.5-.2-9.3-12.6-19.6-27.7-19.5-28.5-19.7-29-13.3-29.1 3.8 0 14.5-3.7 22.4-7.7 20.2-10.3 34.7-27.9 41.6-50.3 2.9-9.7 3.6-30.1 1.3-40-6.7-28.4-26.3-50.4-53.3-60-10.8-3.8-26.1-5.7-35.1-4.4zM126.2 55c10.5 3.9 18.3 11.4 22.8 22 2 4.4 2.4 7.3 2.5 14.6 0 8.4-.2 9.5-3.8 16.6-15.6 31.8-61 28.6-72.2-5.1-10-30.2 20.7-59.4 50.7-48.1z"/>
</svg>